<svg width="1000" height="300" viewBox="0 0 1000 300" fill="none" xmlns="http://www.w3.org/2000/svg">
<g clip-path="url(#clip0_2_2)">
<path d="M922.125 8.10809H947.131V247.297H1000V291.892H922.125V8.10809Z" fill="#3AE7E7"/>
<path d="M843.35 200.27H885.86L892.826 241.622H836.384L843.35 200.27ZM849.602 8.10809H870.857L835.313 291.892H809.057L849.602 8.10809ZM859.068 8.10809H880.323L920.868 291.892H894.433L859.068 8.10809Z" fill="#3AE7E7"/>
<path d="M736.61 217.703C741.492 229.865 746.434 239.189 751.435 245.676C756.555 252.162 762.211 255.405 768.403 255.405C772.571 255.405 776.202 253.919 779.298 250.946C782.394 247.973 784.776 243.649 786.443 237.973C788.11 232.297 788.943 225.27 788.943 216.892C788.943 209.324 788.169 202.973 786.621 197.838C785.073 192.432 782.573 187.973 779.12 184.459C775.786 180.676 771.439 177.432 766.081 174.73C759.175 170.946 753.102 166.351 747.863 160.946C742.623 155.27 738.217 148.649 734.645 141.081C731.192 133.514 728.572 125.135 726.786 115.946C725 106.486 724.107 95.946 724.107 84.3243C724.107 67.027 725.834 52.027 729.287 39.3243C732.74 26.6216 737.682 16.8919 744.112 10.1351C750.542 3.37837 758.103 0 766.795 0C777.036 0 786.026 4.59458 793.766 13.7838C801.506 22.7027 807.936 34.4594 813.056 49.054L798.41 82.2973C793.528 70.1351 788.586 60.8108 783.585 54.3243C778.703 47.8378 773.523 44.5946 768.046 44.5946C764.235 44.5946 760.901 46.2162 758.043 49.4594C755.186 52.4324 752.983 56.8919 751.435 62.8378C749.887 68.5135 749.113 75.4054 749.113 83.5135C749.113 90.8108 749.887 97.2973 751.435 102.973C752.983 108.649 755.662 113.649 759.472 117.973C763.283 122.297 768.522 126.351 775.19 130.135C781.858 133.919 787.633 138.514 792.516 143.919C797.398 149.054 801.387 155.135 804.483 162.162C807.698 169.189 810.079 177.027 811.627 185.676C813.175 194.054 813.949 203.514 813.949 214.054C813.949 232.703 812.044 248.514 808.233 261.486C804.542 274.189 799.362 283.784 792.694 290.27C786.026 296.757 778.286 300 769.475 300C758.639 300 749.291 295.541 741.432 286.622C733.574 277.432 727.084 265.541 721.964 250.946L736.61 217.703Z" fill="#3AE7E7"/>
<path d="M689.783 8.10809H714.789V291.892H689.783V8.10809Z" fill="#3AE7E7"/>
<path d="M607.436 200.27H649.946L656.911 241.622H600.47L607.436 200.27ZM613.687 8.10809H634.942L599.398 291.892H573.142L613.687 8.10809ZM623.154 8.10809H644.409L684.954 291.892H658.519L623.154 8.10809Z" fill="#3AE7E7"/>
<path d="M519.835 8.10809H594.138V52.7027H544.841V129.73H588.243V174.324H544.841V291.892H519.835V8.10809Z" fill="#3AE7E7"/>
<path d="M384.915 8.10809H408.134L464.754 199.054V8.10809H489.76V291.892H466.54L409.92 100.541V291.892H384.915V8.10809Z" fill="#3AE7E7"/>
<path d="M306.14 200.27H348.649L355.615 241.622H299.174L306.14 200.27ZM312.391 8.10809H333.646L298.102 291.892H271.846L312.391 8.10809ZM321.858 8.10809H343.112L383.657 291.892H357.223L321.858 8.10809Z" fill="#3AE7E7"/>
<path d="M205.175 200.27H247.685L254.651 241.622H198.209L205.175 200.27ZM211.426 8.10809H232.681L197.137 291.892H170.882L211.426 8.10809ZM220.893 8.10809H242.148L282.693 291.892H256.258L220.893 8.10809Z" fill="#3AE7E7"/>
<path d="M128.814 175.135L86.3045 8.10809H114.882L141.853 117.973L168.287 8.10809H196.508L153.82 175.135V291.892H128.814V175.135Z" fill="#3AE7E7"/>
<path d="M34.2935 200.27H76.8032L83.7691 241.622H27.3276L34.2935 200.27ZM40.5449 8.10809H61.7998L26.256 291.892H0L40.5449 8.10809ZM50.0114 8.10809H71.2662L111.811 291.892H85.3766L50.0114 8.10809Z" fill="#3AE7E7"/>
</g>
<defs>
<clipPath id="clip0_2_2">
<rect width="1000" height="300" fill="white"/>
</clipPath>
</defs>
</svg>
