<svg width="1000" height="300" viewBox="0 0 1000 300" fill="none" xmlns="http://www.w3.org/2000/svg">
<g clip-path="url(#clip0_2_97)">
<path d="M945.654 223.124L939.451 222.172C940.278 220.055 941.188 216.245 942.18 210.743C943.173 205.134 944 197.515 944.662 187.885L947.639 144.869C947.97 139.366 948.467 134.551 949.128 130.424C949.79 126.297 950.783 122.381 952.106 118.678C953.595 114.974 955.663 111.005 958.31 106.773C960.957 102.54 964.348 97.5661 968.484 91.8517L974.439 93.1216C973.281 95.4496 972.04 99.3121 970.717 104.709C969.559 110 968.566 117.461 967.739 127.09L963.769 173.44C963.107 181.695 961.205 190.107 958.062 198.679C955.084 207.145 950.948 215.293 945.654 223.124Z" fill="#3AE7E7"/>
<path d="M944.167 83.7673C941.355 83.7673 939.122 83.2382 937.467 82.1799C935.648 81.0159 934.738 79.3756 934.738 77.2592C934.738 74.6137 935.73 72.0739 937.716 69.64C939.535 67.1003 941.355 65.1426 943.175 63.7669L947.889 64.4018C947.393 65.9892 947.641 67.259 948.634 68.2114C949.461 69.058 950.95 69.4813 953.101 69.4813C954.92 69.4813 956.74 69.1109 958.56 68.3702C960.214 67.5236 962.116 66.0421 964.267 63.9256L971.96 56.4652C975.268 53.3963 978.246 51.1212 980.893 49.6397C983.705 48.0523 986.848 47.2587 990.322 47.2587C992.638 47.2587 994.789 47.7349 996.774 48.6873C998.925 49.5338 1000 51.227 1000 53.7667C1000 55.8832 999.173 58.3171 997.519 61.0684C995.864 63.714 993.962 65.7775 991.811 67.259L987.593 66.6241C987.923 64.9309 987.51 63.6611 986.352 62.8145C985.359 61.9679 983.788 61.5446 981.637 61.5446C980.148 61.5446 978.659 61.8621 977.171 62.497C975.682 63.132 974.027 64.1902 972.208 65.6717C970.884 66.7299 969.561 67.894 968.237 69.1638C966.914 70.4337 965.508 71.8623 964.019 73.4496C957.567 80.328 950.95 83.7673 944.167 83.7673Z" fill="#3AE7E7"/>
<path d="M855.543 239.156C852.234 239.156 849.587 238.098 847.602 235.981C845.617 233.865 844.624 230.373 844.624 225.505C844.624 221.484 845.617 218.097 847.602 215.346C849.587 212.489 852.317 210.319 855.791 208.838C859.265 207.356 863.235 206.616 867.702 206.616C873.823 206.616 879.447 205.505 884.576 203.282C889.869 200.954 894.253 197.25 897.727 192.171L904.179 193.123C902.525 199.579 900.209 205.61 897.231 211.219C894.419 216.722 890.945 221.59 886.809 225.822C882.673 230.055 877.958 233.336 872.665 235.664C867.536 237.992 861.829 239.156 855.543 239.156Z" fill="#3AE7E7"/>
<path d="M850.969 300C847.33 297.672 844.352 295.767 842.036 294.286C839.555 292.91 837.404 291.693 835.584 290.635C833.599 289.577 831.366 288.518 828.884 287.46V285.873C830.042 284.815 831.697 283.439 833.847 281.746C835.832 280.158 838.066 278.518 840.547 276.825C843.029 275.132 845.345 273.597 847.495 272.222C849.48 270.952 850.969 270.105 851.962 269.682H854.443C858.744 271.375 862.218 272.91 864.865 274.285C867.512 275.661 869.663 276.984 871.317 278.254C874.626 275.714 877.934 273.28 881.243 270.952C884.717 268.73 887.198 267.354 888.687 266.825H891.169C897.786 269.47 902.832 271.851 906.306 273.968C909.945 276.19 911.765 278.518 911.765 280.952C911.765 283.386 909.614 285.979 905.313 288.73C901.177 291.587 896.049 294.391 889.928 297.143H887.943C884.634 295.132 881.822 293.386 879.506 291.905C877.19 290.529 874.957 289.312 872.806 288.254C869.497 291.746 862.963 295.661 853.203 300H850.969Z" fill="#3AE7E7"/>
<path d="M855.56 239.156C844.311 239.156 835.708 236.087 829.753 229.949C823.963 223.706 821.068 214.447 821.068 202.171C821.068 197.409 821.233 192.541 821.564 187.568C821.895 182.488 822.226 177.409 822.557 172.329C823.053 167.25 823.549 162.276 824.046 157.408C824.707 152.541 825.286 147.937 825.783 143.599C826.775 134.392 828.512 126.032 830.994 118.519C833.641 111.005 837.115 104.18 841.416 98.0423L847.371 98.9947C846.379 102.169 845.469 105.979 844.642 110.423C843.814 114.868 842.987 119.683 842.16 124.868C841.498 129.948 840.919 135.239 840.423 140.741C839.927 146.138 839.513 151.43 839.182 156.615C839.017 161.8 838.934 166.615 838.934 171.059C838.934 176.351 839.348 181.324 840.175 185.98C841.168 190.531 842.822 194.446 845.138 197.727C847.289 200.584 850.183 202.806 853.823 204.393C857.628 205.875 862.26 206.616 867.719 206.616C871.524 206.616 874.254 207.78 875.908 210.108C877.728 212.436 878.637 215.822 878.637 220.267C878.637 224.923 877.48 228.627 875.164 231.378C872.847 234.129 869.87 236.14 866.23 237.41C862.756 238.574 859.199 239.156 855.56 239.156Z" fill="#3AE7E7"/>
<path d="M649.305 296.459C637.063 296.459 626.641 295.242 618.039 292.808C609.602 290.374 602.819 287.04 597.691 282.808C592.562 278.68 588.757 273.971 586.276 268.68C583.96 263.495 582.802 258.045 582.802 252.331C582.802 242.595 584.704 232.436 588.509 221.854C592.48 211.272 599.014 200.266 608.113 188.838L615.805 190.584C611.008 197.991 607.534 204.817 605.383 211.06C603.398 217.198 602.405 222.806 602.405 227.886C602.405 234.235 603.812 239.579 606.624 243.918C609.602 248.362 613.737 251.908 619.031 254.553C624.325 257.199 630.529 259.103 637.642 260.267C644.756 261.537 652.448 262.172 660.72 262.172C672.134 262.172 682.308 261.167 691.242 259.156C700.175 257.252 708.033 254.659 714.815 251.378C721.598 248.204 727.305 244.659 731.937 240.743C736.569 237.674 740.043 234.553 742.359 231.378C744.675 228.203 746.247 224.658 747.074 220.743C747.901 216.722 748.315 212.066 748.315 206.774C748.315 204.87 748.232 202.965 748.067 201.06C748.067 199.155 748.067 197.198 748.067 195.187C748.067 189.896 748.563 184.816 749.556 179.949C750.714 175.081 752.451 170.16 754.767 165.186C757.248 160.107 760.309 154.657 763.948 148.837L770.152 149.789C769.821 151.165 769.407 153.176 768.911 155.821C768.58 158.467 768.332 161.483 768.166 164.869C768.001 168.255 767.836 171.8 767.67 175.504C767.67 180.478 767.257 185.081 766.43 189.314C765.768 193.441 764.858 197.198 763.7 200.584C762.046 210.954 759.15 220.902 755.015 230.426C750.879 239.95 745.503 248.68 738.885 256.617C732.434 264.659 724.824 271.643 716.056 277.569C707.288 283.601 697.28 288.257 686.03 291.538C674.947 294.818 662.705 296.459 649.305 296.459Z" fill="#3AE7E7"/>
<path d="M677.886 219.632C673.42 216.775 669.449 214.394 665.975 212.489C662.501 210.584 659.11 208.785 655.801 207.092V205.663C656.959 204.499 658.613 203.124 660.764 201.536C662.749 199.843 664.983 198.15 667.464 196.457C669.945 194.764 672.261 193.282 674.412 192.012C676.397 190.637 677.969 189.737 679.127 189.314H681.36C688.474 192.171 693.685 194.711 696.993 196.933C700.302 199.049 701.956 201.272 701.956 203.6C701.956 205.928 699.806 208.52 695.504 211.378C691.369 214.129 686.158 216.88 679.871 219.632H677.886Z" fill="#3AE7E7"/>
<path d="M472.91 138.443C466.79 138.443 463.729 134.95 463.729 127.966C463.729 123.522 465.301 119.871 468.444 117.014C471.587 114.156 475.723 112.728 480.851 112.728C485.979 112.728 491.025 112.252 495.988 111.299C500.951 110.347 505.087 108.812 508.395 106.696C511.704 104.474 513.358 101.564 513.358 97.9657C513.358 96.6958 513.11 95.4259 512.614 94.1561C512.117 92.7804 511.538 91.7751 510.877 91.1401C508.726 91.9867 505.583 92.8333 501.447 93.6799C497.477 94.4206 493.424 94.791 489.288 94.791C485.318 94.791 481.43 94.2619 477.625 93.2037C473.82 92.0396 470.677 90.3994 468.196 88.2829C465.714 86.1665 464.474 83.7326 464.474 80.9812C464.474 78.759 465.053 76.5367 466.211 74.3144C467.369 72.0922 468.857 69.817 470.677 67.4889L478.866 57.4887C481.347 54.4199 484.16 52.1976 487.303 50.8219C490.446 49.3404 494.003 48.5997 497.973 48.5997C505.252 48.5997 511.208 50.0812 515.84 53.0442C520.637 55.9014 524.194 59.6052 526.51 64.1555C528.826 68.6001 529.984 73.3091 529.984 78.2828C529.984 85.5845 528.495 92.7804 525.517 99.8705C522.54 106.961 518.238 113.627 512.614 119.871C507.155 126.008 501.116 130.665 494.499 133.839C488.047 136.908 480.851 138.443 472.91 138.443Z" fill="#3AE7E7"/>
<path d="M503.167 30.318C499.527 27.9899 496.55 26.138 494.233 24.7624C491.752 23.2809 489.601 22.011 487.782 20.9528C485.797 19.8945 483.563 18.8363 481.082 17.7781V16.3495C482.24 15.1855 483.894 13.8098 486.045 12.2224C488.03 10.5293 490.263 8.83615 492.745 7.14299C495.226 5.44984 497.542 3.96834 499.693 2.69847C501.678 1.32279 503.167 0.423295 504.159 0H506.641C513.754 2.8572 518.965 5.39693 522.274 7.61919C525.583 9.73563 527.237 11.9579 527.237 14.286C527.237 16.6141 525.086 19.2067 520.785 22.0639C516.649 24.8153 511.438 27.5666 505.152 30.318H503.167Z" fill="#3AE7E7"/>
<path d="M313.465 167.223C306.352 167.223 300.975 166.958 297.336 166.429C293.696 165.9 291.877 164.789 291.877 163.095C291.877 161.297 293.117 160.132 295.599 159.603C297.915 158.968 301.968 158.651 307.758 158.651C317.022 158.651 326.203 158.228 335.302 157.381C344.401 156.535 353.251 155.37 361.854 153.889C371.779 152.302 381.044 150.132 389.646 147.381C398.414 144.63 406.354 141.561 413.468 138.174C419.589 135.317 425.213 132.354 430.342 129.285C435.47 126.216 439.937 123.042 443.742 119.761C447.712 116.481 450.772 114.1 452.923 112.618C455.239 111.137 457.059 110.184 458.382 109.761C459.706 109.338 461.029 109.126 462.352 109.126C463.676 109.126 464.917 109.285 466.075 109.602C467.398 109.814 468.639 110.079 469.797 110.396C471.286 110.714 472.857 111.031 474.512 111.349C476.331 111.666 478.565 111.825 481.211 111.825C484.024 111.825 486.174 112.724 487.663 114.523C489.318 116.216 490.145 118.809 490.145 122.301C490.145 127.381 488.325 131.19 484.686 133.73C481.211 136.27 477.241 137.539 472.775 137.539C469.135 137.539 465.909 137.169 463.097 136.428C460.285 135.688 457.803 134.947 455.653 134.206C454.329 133.677 453.006 133.254 451.682 132.936C450.524 132.513 449.532 132.301 448.704 132.301C447.877 132.301 445.644 133.254 442.005 135.158C438.53 137.063 433.816 139.55 427.86 142.619C416.446 148.545 404.369 153.307 391.631 156.905C378.893 160.503 365.907 163.148 352.672 164.842C339.603 166.429 326.534 167.223 313.465 167.223Z" fill="#3AE7E7"/>
<path d="M426.651 203.665C423.011 201.337 420.034 199.433 417.717 197.951C415.236 196.575 413.085 195.358 411.266 194.3C409.281 193.242 407.047 192.184 404.566 191.126V189.538C405.724 188.48 407.378 187.104 409.529 185.411C411.514 183.824 413.747 182.184 416.229 180.49C418.71 178.797 421.026 177.263 423.177 175.887C425.162 174.617 426.651 173.771 427.643 173.347H430.125C434.426 175.041 437.9 176.575 440.547 177.951C443.194 179.326 445.344 180.649 446.999 181.919C450.307 179.379 453.616 176.945 456.924 174.617C460.398 172.395 462.88 171.019 464.369 170.49H466.85C473.467 173.136 478.513 175.517 481.987 177.633C485.627 179.855 487.446 182.184 487.446 184.617C487.446 187.051 485.296 189.644 480.995 192.395C476.859 195.253 471.73 198.057 465.609 200.808H463.624C460.316 198.798 457.503 197.052 455.187 195.57C452.871 194.194 450.638 192.977 448.488 191.919C445.179 195.411 438.644 199.327 428.884 203.665H426.651Z" fill="#3AE7E7"/>
<path d="M211.61 187.705C208.797 187.705 206.564 187.017 204.91 185.641C203.255 184.265 202.18 182.519 201.684 180.403C201.022 178.286 200.691 176.17 200.691 174.054C200.691 169.715 201.767 166.17 203.917 163.418C205.902 160.667 208.715 158.604 212.354 157.228C215.828 155.852 219.633 155.164 223.769 155.164C231.213 155.164 237.665 154.371 243.124 152.783C248.583 151.09 253.133 148.498 256.772 145.005L261.735 140.402C263.389 138.603 265.044 137.386 266.698 136.751C268.352 136.116 270.255 135.799 272.405 135.799C273.894 135.799 275.631 136.01 277.616 136.434C279.601 136.857 281.587 137.333 283.572 137.862C285.557 138.392 287.046 138.762 288.038 138.974C290.354 136.645 292.919 134.264 295.731 131.831C298.709 129.397 302.431 126.169 306.897 122.148C312.687 117.174 318.974 112.518 325.757 108.179C332.539 103.841 339.735 100.348 347.345 97.7029C354.955 95.0574 362.896 93.7346 371.167 93.7346C378.281 93.7346 383.905 94.8986 388.041 97.2267C392.177 99.5548 394.245 102.941 394.245 107.386C394.245 111.301 393.004 115.64 390.522 120.402C388.041 125.164 384.567 129.926 380.1 134.688C375.799 139.344 370.836 143.683 365.212 147.704C359.752 151.619 353.962 154.794 347.841 157.228C340.728 160.297 333.284 162.731 325.508 164.53C317.733 166.223 310.123 167.069 302.679 167.069C296.227 167.069 290.189 166.434 284.564 165.164C278.94 163.895 273.894 162.36 269.428 160.561C266.615 159.397 264.63 158.656 263.472 158.339C262.314 157.916 260.991 157.704 259.502 157.704C258.509 157.704 257.434 158.127 256.276 158.974C254.787 160.138 252.719 162.572 250.072 166.276C248.252 168.921 246.102 171.461 243.62 173.895C241.304 176.329 238.658 178.604 235.68 180.72C232.702 182.943 229.228 184.689 225.258 185.959C221.287 187.123 216.738 187.705 211.61 187.705ZM313.597 142.307C320.545 142.307 327.493 141.778 334.442 140.72C341.555 139.661 348.007 138.286 353.797 136.593C359.587 134.899 364.219 133.047 367.693 131.037C371.333 129.026 373.152 127.069 373.152 125.164C373.152 122.624 371.167 120.772 367.197 119.608C363.392 118.338 359.008 117.703 354.045 117.703C344.781 117.703 335.848 119.608 327.245 123.418C318.808 127.227 309.958 133.153 300.694 141.196C303.506 141.619 305.905 141.937 307.89 142.148C309.875 142.254 311.778 142.307 313.597 142.307Z" fill="#3AE7E7"/>
<path d="M65.5103 296.459C53.1031 296.459 42.681 295.189 34.2441 292.649C25.9725 290.215 19.2726 286.935 14.1443 282.808C9.18137 278.786 5.54191 274.183 3.22589 268.998C1.0753 263.918 0 258.786 0 253.601C0 242.701 2.23332 231.907 6.69994 221.219C11.332 210.425 17.9492 199.631 26.5515 188.838L34.4922 190.584C30.191 197.039 26.717 203.441 24.0701 209.79C21.4232 216.034 20.0998 222.33 20.0998 228.68C20.0998 235.241 21.6713 240.69 24.8145 245.029C27.9577 249.368 32.1762 252.754 37.4699 255.188C42.9291 257.728 49.1328 259.527 56.0808 260.585C63.0289 261.643 70.2251 262.172 77.6695 262.172C90.4076 262.172 101.657 261.008 111.417 258.68C121.178 256.458 129.449 253.601 136.232 250.109C143.014 246.616 148.474 242.966 152.609 239.156C157.407 234.923 161.046 229.685 163.528 223.441C166.175 217.198 167.912 210.214 168.739 202.489C169.731 189.473 170.558 178.732 171.22 170.266C171.882 161.694 172.378 154.922 172.709 149.948C173.205 144.869 173.536 141.059 173.702 138.519L176.431 104.233C176.928 100.741 177.507 97.4074 178.168 94.2327C178.83 91.058 179.823 87.8305 181.146 84.55C182.635 81.1637 184.372 77.5657 186.357 73.7561C188.508 69.8407 191.155 65.3962 194.298 60.4226L200.501 61.375C199.674 64.0205 198.847 67.5126 198.02 71.8513C197.193 76.0842 196.448 80.7404 195.787 85.8199C195.125 90.8993 194.546 96.0846 194.05 101.376C193.553 106.667 193.14 111.64 192.809 116.297C192.478 120.847 192.313 124.762 192.313 128.043C192.313 134.075 193.305 139.101 195.29 143.122C197.441 147.038 200.832 150.001 205.464 152.012C210.262 153.916 216.3 154.869 223.579 154.869C227.549 154.869 230.361 156.086 232.016 158.52C233.67 160.848 234.497 164.075 234.497 168.202C234.497 172.329 233.505 175.821 231.52 178.679C229.534 181.536 226.805 183.705 223.331 185.187C220.022 186.668 216.052 187.409 211.42 187.409C206.126 187.409 201.577 186.774 197.772 185.504C193.967 184.129 190.906 182.33 188.59 180.107L188.094 185.663C187.102 192.859 185.447 200.531 183.131 208.679C180.815 216.722 177.589 224.87 173.454 233.124C169.318 241.272 164.024 249.156 157.572 256.775C150.79 264.712 142.849 271.643 133.75 277.569C124.652 283.601 114.395 288.257 102.98 291.538C91.731 294.818 79.241 296.459 65.5103 296.459Z" fill="#3AE7E7"/>
</g>
<defs>
<clipPath id="clip0_2_97">
<rect width="1000" height="300" fill="white"/>
</clipPath>
</defs>
</svg>
